<svg width="24" height="25" viewBox="0 0 24 25" fill="none" xmlns="http://www.w3.org/2000/svg">
<path d="M9 17C8.3 17 7.70833 16.7583 7.225 16.275C6.74167 15.7917 6.5 15.2 6.5 14.5C6.5 13.8 6.74167 13.2083 7.225 12.725C7.70833 12.2417 8.3 12 9 12C9.7 12 10.2917 12.2417 10.775 12.725C11.2583 13.2083 11.5 13.8 11.5 14.5C11.5 15.2 11.2583 15.7917 10.775 16.275C10.2917 16.7583 9.7 17 9 17ZM5 22.5C4.45 22.5 3.979 22.3043 3.587 21.913C3.19567 21.521 3 21.05 3 20.5V6.5C3 5.95 3.19567 5.47933 3.587 5.088C3.979 4.696 4.45 4.5 5 4.5H6V2.5H8V4.5H16V2.5H18V4.5H19C19.55 4.5 20.021 4.696 20.413 5.088C20.8043 5.47933 21 5.95 21 6.5V20.5C21 21.05 20.8043 21.521 20.413 21.913C20.021 22.3043 19.55 22.5 19 22.5H5ZM5 20.5H19V10.5H5V20.5Z" fill="#6B7280"/>
</svg>
