<svg width="24" height="25" viewBox="0 0 24 25" fill="none" xmlns="http://www.w3.org/2000/svg">
<path d="M13.4985 9.5C12.2361 9.50004 11.0159 9.95496 10.0617 10.7814C9.10738 11.6079 8.48284 12.7505 8.3025 14H8.25C7.25544 14 6.30161 14.3951 5.59835 15.0984C4.89509 15.8016 4.5 16.7554 4.5 17.75C4.5 18.7446 4.89509 19.6984 5.59835 20.4017C6.30161 21.1049 7.25544 21.5 8.25 21.5H18.75C19.7446 21.5 20.6984 21.1049 21.4016 20.4017C22.1049 19.6984 22.5 18.7446 22.5 17.75C22.5 16.7554 22.1049 15.8016 21.4016 15.0984C20.6984 14.3951 19.7446 14 18.75 14H18.6945C18.5142 12.7508 17.8899 11.6083 16.9359 10.7819C15.9819 9.95549 14.7622 9.5004 13.5 9.5H13.4985ZM13.1805 4.73C13.2268 4.64303 13.2555 4.5478 13.265 4.44974C13.2745 4.35167 13.2645 4.2527 13.2358 4.15847C13.207 4.06425 13.16 3.9766 13.0973 3.90056C13.0347 3.82451 12.9577 3.76154 12.8707 3.71525C12.7838 3.66896 12.6885 3.64025 12.5905 3.63076C12.4924 3.62128 12.3934 3.6312 12.2992 3.65996C12.205 3.68873 12.1174 3.73577 12.0413 3.7984C11.9653 3.86103 11.9023 3.93803 11.856 4.025L11.217 5.2295C11.1235 5.40514 11.1036 5.61072 11.1617 5.80103C11.2198 5.99133 11.3511 6.15076 11.5267 6.24425C11.7024 6.33774 11.908 6.35763 12.0983 6.29954C12.2886 6.24145 12.448 6.11014 12.5415 5.9345L13.1805 4.7285V4.73ZM7.5225 3.6095C7.49364 3.51524 7.4465 3.42759 7.38377 3.35156C7.32104 3.27552 7.24394 3.21258 7.15689 3.16634C7.06983 3.12009 6.97452 3.09145 6.8764 3.08204C6.77827 3.07263 6.67925 3.08264 6.585 3.1115C6.49074 3.14036 6.40309 3.1875 6.32705 3.25023C6.25102 3.31296 6.18808 3.39006 6.14184 3.47711C6.09559 3.56417 6.06695 3.65948 6.05754 3.7576C6.04813 3.85573 6.05814 3.95474 6.087 4.049L6.4875 5.354C6.54798 5.54149 6.67981 5.69766 6.8545 5.78875C7.02918 5.87984 7.23269 5.89854 7.42105 5.84081C7.60941 5.78308 7.76749 5.65356 7.86113 5.48023C7.95477 5.3069 7.97646 5.10369 7.9215 4.9145L7.5225 3.6095ZM4.5 11C4.5 11.906 4.7685 12.749 5.229 13.4555C5.7795 13.067 6.4095 12.7805 7.089 12.629C7.47825 11.4555 8.18194 10.4112 9.12348 9.60982C10.065 8.80846 11.2083 8.2807 12.429 8.084C11.8324 7.38201 11.0348 6.88004 10.1438 6.64588C9.25278 6.41173 8.31139 6.45667 7.44677 6.77465C6.58214 7.09263 5.83594 7.66832 5.30896 8.42395C4.78197 9.17959 4.49961 10.0788 4.5 11ZM2.73 6.821C2.64303 6.77471 2.5478 6.746 2.44973 6.73651C2.35167 6.72703 2.2527 6.73695 2.15847 6.76571C2.06424 6.79448 1.9766 6.84152 1.90055 6.90415C1.82451 6.96678 1.76154 7.04378 1.71525 7.13075C1.66896 7.21772 1.64025 7.31295 1.63076 7.41101C1.62128 7.50908 1.6312 7.60805 1.65996 7.70228C1.68872 7.7965 1.73576 7.88414 1.7984 7.96019C1.86103 8.03624 1.93803 8.09921 2.025 8.1455L3.2295 8.7845C3.40514 8.87799 3.61072 8.89788 3.80102 8.83979C3.99133 8.7817 4.15076 8.65039 4.24425 8.47475C4.33774 8.29911 4.35762 8.09353 4.29953 7.90322C4.24145 7.71292 4.11014 7.55349 3.9345 7.46L2.7285 6.821H2.73ZM3.354 13.5155C3.54149 13.455 3.69766 13.3232 3.78875 13.1485C3.87984 12.9738 3.89854 12.7703 3.84081 12.5819C3.78308 12.3936 3.65356 12.2355 3.48023 12.1419C3.3069 12.0482 3.10368 12.0265 2.9145 12.0815L1.6095 12.4805C1.51403 12.5082 1.42503 12.5547 1.34767 12.6171C1.2703 12.6796 1.20613 12.7568 1.15888 12.8442C1.11162 12.9317 1.08223 13.0277 1.0724 13.1266C1.06258 13.2255 1.07252 13.3254 1.10166 13.4205C1.13079 13.5155 1.17853 13.6039 1.2421 13.6803C1.30567 13.7567 1.3838 13.8198 1.47195 13.8657C1.5601 13.9117 1.65652 13.9397 1.75558 13.9481C1.85464 13.9564 1.95438 13.945 2.049 13.9145L3.354 13.5155Z" fill="#6B7280"/>
</svg>
