<svg width="24" height="25" viewBox="0 0 24 25" fill="none" xmlns="http://www.w3.org/2000/svg">
<path d="M12 14C12.8284 14 13.5 13.3284 13.5 12.5C13.5 11.6716 12.8284 11 12 11C11.1716 11 10.5 11.6716 10.5 12.5C10.5 13.3284 11.1716 14 12 14Z" fill="#6B7280"/>
<path d="M21.89 10.82L21.1 8.3C21.0147 8.00876 20.8716 7.73767 20.6793 7.50292C20.487 7.26817 20.2493 7.07456 19.9805 6.93364C19.7118 6.79272 19.4174 6.70737 19.1149 6.6827C18.8124 6.65802 18.5081 6.69451 18.22 6.79L17.88 6.9C17.6136 6.98805 17.3299 7.01039 17.0531 6.96511C16.7762 6.91984 16.5144 6.8083 16.29 6.64L16.18 6.56C15.961 6.39237 15.7844 6.17562 15.6646 5.92723C15.5447 5.67884 15.4849 5.40575 15.49 5.13V4.85C15.4949 4.22202 15.2503 3.61779 14.81 3.17C14.6006 2.95845 14.3514 2.79036 14.0768 2.67538C13.8023 2.5604 13.5077 2.5008 13.21 2.5H10.66C10.0482 2.50791 9.46424 2.75719 9.03535 3.19358C8.60645 3.62997 8.36731 4.21813 8.37 4.83V5.07C8.36904 5.36027 8.30295 5.64663 8.17661 5.90796C8.05027 6.1693 7.86689 6.39895 7.64 6.58L7.51 6.68C7.25934 6.86962 6.96616 6.99516 6.65595 7.0457C6.34574 7.09624 6.02788 7.07025 5.73 6.97C5.45641 6.87533 5.16646 6.83715 4.87769 6.85777C4.58893 6.8784 4.30735 6.9574 4.05 7.09C3.78205 7.22299 3.54434 7.40969 3.35166 7.6385C3.15898 7.86731 3.01544 8.13333 2.93 8.42L2.11 11.02C1.91984 11.6062 1.96861 12.2437 2.24571 12.7942C2.52281 13.3447 3.00587 13.7636 3.59 13.96H3.75C4.01945 14.061 4.2613 14.2241 4.4559 14.4361C4.65051 14.648 4.79238 14.9029 4.87 15.18L4.93 15.34C5.04147 15.6461 5.07875 15.9743 5.03877 16.2977C4.99879 16.621 4.88269 16.9302 4.7 17.2C4.33021 17.7036 4.17424 18.3328 4.266 18.9508C4.35776 19.5688 4.68984 20.1256 5.19 20.5L7.26 22.07C7.65195 22.355 8.12543 22.5058 8.61 22.5C8.73969 22.5127 8.87031 22.5127 9 22.5C9.3001 22.4419 9.58522 22.3233 9.83796 22.1514C10.0907 21.9794 10.3057 21.7578 10.47 21.5L10.7 21.17C10.8613 20.9386 11.0748 20.7483 11.3232 20.6145C11.5716 20.4808 11.848 20.4073 12.13 20.4C12.4256 20.3927 12.7181 20.4604 12.9804 20.5968C13.2427 20.7332 13.4662 20.9339 13.63 21.18L13.75 21.35C13.9205 21.6037 14.1411 21.8199 14.3983 21.9852C14.6555 22.1504 14.9438 22.2613 15.2454 22.3109C15.5471 22.3606 15.8557 22.348 16.1523 22.2739C16.4489 22.1997 16.7272 22.0657 16.97 21.88L19 20.36C19.48 19.9872 19.7992 19.445 19.8921 18.8444C19.9851 18.2438 19.8448 17.6304 19.5 17.13L19.24 16.75C19.0836 16.5084 18.9813 16.236 18.9399 15.9512C18.8984 15.6664 18.9189 15.3761 19 15.1C19.0826 14.8044 19.236 14.5334 19.4468 14.3104C19.6576 14.0874 19.9195 13.9191 20.21 13.82L20.41 13.75C20.9887 13.5492 21.4667 13.1312 21.7428 12.5845C22.019 12.0377 22.0718 11.405 21.89 10.82ZM12 16C11.3078 16 10.6311 15.7947 10.0555 15.4101C9.47993 15.0256 9.03132 14.4789 8.76642 13.8394C8.50151 13.1999 8.4322 12.4961 8.56725 11.8172C8.7023 11.1383 9.03564 10.5146 9.52512 10.0251C10.0146 9.53564 10.6382 9.2023 11.3172 9.06725C11.9961 8.9322 12.6998 9.00151 13.3394 9.26642C13.9789 9.53133 14.5256 9.97993 14.9101 10.5555C15.2947 11.1311 15.5 11.8078 15.5 12.5C15.5 13.4283 15.1312 14.3185 14.4749 14.9749C13.8185 15.6313 12.9283 16 12 16Z" fill="#6B7280"/>
</svg>
