<svg width="132" height="24" viewBox="0 0 88 16" fill="none" xmlns="http://www.w3.org/2000/svg">
<path d="M7.62695 1.28125V15.5H4.70703V1.28125H7.62695ZM12.002 1.28125V3.57617H0.400391V1.28125H12.002ZM17.7148 13.1172V8.41016C17.7148 8.07161 17.6595 7.7819 17.5488 7.54102C17.4382 7.29362 17.2656 7.10156 17.0312 6.96484C16.8034 6.82812 16.5072 6.75977 16.1426 6.75977C15.8301 6.75977 15.5599 6.8151 15.332 6.92578C15.1042 7.02995 14.9284 7.18294 14.8047 7.38477C14.681 7.58008 14.6191 7.8112 14.6191 8.07812H11.8066C11.8066 7.62891 11.9108 7.20247 12.1191 6.79883C12.3275 6.39518 12.6302 6.04036 13.0273 5.73438C13.4245 5.42188 13.8965 5.17773 14.4434 5.00195C14.9967 4.82617 15.6152 4.73828 16.2988 4.73828C17.1191 4.73828 17.8483 4.875 18.4863 5.14844C19.1243 5.42188 19.6257 5.83203 19.9902 6.37891C20.3613 6.92578 20.5469 7.60938 20.5469 8.42969V12.9512C20.5469 13.5306 20.5827 14.0059 20.6543 14.377C20.7259 14.7415 20.8301 15.0605 20.9668 15.334V15.5H18.125C17.9883 15.2135 17.8841 14.8555 17.8125 14.4258C17.7474 13.9896 17.7148 13.5534 17.7148 13.1172ZM18.0859 9.06445L18.1055 10.6562H16.5332C16.1621 10.6562 15.8398 10.6986 15.5664 10.7832C15.293 10.8678 15.0684 10.9883 14.8926 11.1445C14.7168 11.2943 14.5866 11.4701 14.502 11.6719C14.4238 11.8737 14.3848 12.0951 14.3848 12.3359C14.3848 12.5768 14.4401 12.7949 14.5508 12.9902C14.6615 13.179 14.821 13.3288 15.0293 13.4395C15.2376 13.5436 15.4818 13.5957 15.7617 13.5957C16.1849 13.5957 16.5527 13.5111 16.8652 13.3418C17.1777 13.1725 17.4186 12.9642 17.5879 12.7168C17.7637 12.4694 17.8548 12.235 17.8613 12.0137L18.6035 13.2051C18.4993 13.472 18.3561 13.7487 18.1738 14.0352C17.998 14.3216 17.7734 14.5918 17.5 14.8457C17.2266 15.0931 16.8978 15.2982 16.5137 15.4609C16.1296 15.6172 15.6738 15.6953 15.1465 15.6953C14.4759 15.6953 13.8672 15.5618 13.3203 15.2949C12.7799 15.0215 12.3503 14.6471 12.0312 14.1719C11.7188 13.6901 11.5625 13.1432 11.5625 12.5312C11.5625 11.9779 11.6667 11.4863 11.875 11.0566C12.0833 10.627 12.3893 10.2656 12.793 9.97266C13.2031 9.67318 13.7142 9.44857 14.3262 9.29883C14.9382 9.14258 15.6478 9.06445 16.4551 9.06445H18.0859ZM28.4277 12.5801C28.4277 12.3783 28.3691 12.196 28.252 12.0332C28.1348 11.8704 27.9167 11.7207 27.5977 11.584C27.2852 11.4408 26.8327 11.3105 26.2402 11.1934C25.7064 11.0762 25.2083 10.9297 24.7461 10.7539C24.2904 10.5716 23.8932 10.3535 23.5547 10.0996C23.2227 9.8457 22.9622 9.54622 22.7734 9.20117C22.5846 8.84961 22.4902 8.44922 22.4902 8C22.4902 7.55729 22.5846 7.14062 22.7734 6.75C22.9688 6.35938 23.2454 6.01432 23.6035 5.71484C23.9681 5.40885 24.4108 5.17122 24.9316 5.00195C25.459 4.82617 26.0514 4.73828 26.709 4.73828C27.627 4.73828 28.4147 4.88477 29.0723 5.17773C29.7363 5.4707 30.2441 5.87435 30.5957 6.38867C30.9538 6.89648 31.1328 7.47591 31.1328 8.12695H28.3203C28.3203 7.85352 28.2617 7.60938 28.1445 7.39453C28.0339 7.17318 27.8581 7.00065 27.6172 6.87695C27.3828 6.74674 27.0768 6.68164 26.6992 6.68164C26.3867 6.68164 26.1165 6.73698 25.8887 6.84766C25.6608 6.95182 25.485 7.09505 25.3613 7.27734C25.2441 7.45312 25.1855 7.64844 25.1855 7.86328C25.1855 8.02604 25.2181 8.17253 25.2832 8.30273C25.3548 8.42643 25.4688 8.54036 25.625 8.64453C25.7812 8.7487 25.9831 8.84635 26.2305 8.9375C26.4844 9.02214 26.7969 9.10026 27.168 9.17188C27.9297 9.32812 28.61 9.5332 29.209 9.78711C29.8079 10.0345 30.2832 10.373 30.6348 10.8027C30.9863 11.2259 31.1621 11.7826 31.1621 12.4727C31.1621 12.9414 31.0579 13.3711 30.8496 13.7617C30.6413 14.1523 30.3418 14.4941 29.9512 14.7871C29.5605 15.0736 29.0918 15.2982 28.5449 15.4609C28.0046 15.6172 27.3958 15.6953 26.7188 15.6953C25.7357 15.6953 24.9023 15.5195 24.2188 15.168C23.5417 14.8164 23.0273 14.3704 22.6758 13.8301C22.3307 13.2832 22.1582 12.7233 22.1582 12.1504H24.8242C24.8372 12.5345 24.9349 12.8438 25.1172 13.0781C25.306 13.3125 25.5436 13.4818 25.8301 13.5859C26.123 13.6901 26.4388 13.7422 26.7773 13.7422C27.1419 13.7422 27.4447 13.6934 27.6855 13.5957C27.9264 13.4915 28.1087 13.3548 28.2324 13.1855C28.3626 13.0098 28.4277 12.8079 28.4277 12.5801ZM35.8008 0.490234V15.5H32.9883V0.490234H35.8008ZM42.4609 4.93359L37.8711 10.168L35.4102 12.6582L34.3848 10.627L36.3379 8.14648L39.082 4.93359H42.4609ZM39.541 15.5L36.416 10.6172L38.3594 8.91797L42.7832 15.5H39.541ZM45.1855 1.28125H47.666L51.3184 11.7207L54.9707 1.28125H57.4512L52.3145 15.5H50.3223L45.1855 1.28125ZM43.8477 1.28125H46.3184L46.7676 11.457V15.5H43.8477V1.28125ZM56.3184 1.28125H58.7988V15.5H55.8691V11.457L56.3184 1.28125ZM66.8945 13.1172V8.41016C66.8945 8.07161 66.8392 7.7819 66.7285 7.54102C66.6178 7.29362 66.4453 7.10156 66.2109 6.96484C65.9831 6.82812 65.6868 6.75977 65.3223 6.75977C65.0098 6.75977 64.7396 6.8151 64.5117 6.92578C64.2839 7.02995 64.1081 7.18294 63.9844 7.38477C63.8607 7.58008 63.7988 7.8112 63.7988 8.07812H60.9863C60.9863 7.62891 61.0905 7.20247 61.2988 6.79883C61.5072 6.39518 61.8099 6.04036 62.207 5.73438C62.6042 5.42188 63.0762 5.17773 63.623 5.00195C64.1764 4.82617 64.7949 4.73828 65.4785 4.73828C66.2988 4.73828 67.028 4.875 67.666 5.14844C68.304 5.42188 68.8053 5.83203 69.1699 6.37891C69.541 6.92578 69.7266 7.60938 69.7266 8.42969V12.9512C69.7266 13.5306 69.7624 14.0059 69.834 14.377C69.9056 14.7415 70.0098 15.0605 70.1465 15.334V15.5H67.3047C67.168 15.2135 67.0638 14.8555 66.9922 14.4258C66.9271 13.9896 66.8945 13.5534 66.8945 13.1172ZM67.2656 9.06445L67.2852 10.6562H65.7129C65.3418 10.6562 65.0195 10.6986 64.7461 10.7832C64.4727 10.8678 64.248 10.9883 64.0723 11.1445C63.8965 11.2943 63.7663 11.4701 63.6816 11.6719C63.6035 11.8737 63.5645 12.0951 63.5645 12.3359C63.5645 12.5768 63.6198 12.7949 63.7305 12.9902C63.8411 13.179 64.0007 13.3288 64.209 13.4395C64.4173 13.5436 64.6615 13.5957 64.9414 13.5957C65.3646 13.5957 65.7324 13.5111 66.0449 13.3418C66.3574 13.1725 66.5983 12.9642 66.7676 12.7168C66.9434 12.4694 67.0345 12.235 67.041 12.0137L67.7832 13.2051C67.679 13.472 67.5358 13.7487 67.3535 14.0352C67.1777 14.3216 66.9531 14.5918 66.6797 14.8457C66.4062 15.0931 66.0775 15.2982 65.6934 15.4609C65.3092 15.6172 64.8535 15.6953 64.3262 15.6953C63.6556 15.6953 63.0469 15.5618 62.5 15.2949C61.9596 15.0215 61.5299 14.6471 61.2109 14.1719C60.8984 13.6901 60.7422 13.1432 60.7422 12.5312C60.7422 11.9779 60.8464 11.4863 61.0547 11.0566C61.263 10.627 61.569 10.2656 61.9727 9.97266C62.3828 9.67318 62.8939 9.44857 63.5059 9.29883C64.1178 9.14258 64.8275 9.06445 65.6348 9.06445H67.2656ZM77.0703 4.93359V6.92578H70.918V4.93359H77.0703ZM72.4414 2.32617H75.2539V12.3164C75.2539 12.6224 75.293 12.8568 75.3711 13.0195C75.4557 13.1823 75.5794 13.2962 75.7422 13.3613C75.9049 13.4199 76.11 13.4492 76.3574 13.4492C76.5332 13.4492 76.6895 13.4427 76.8262 13.4297C76.9694 13.4102 77.0898 13.3906 77.1875 13.3711L77.1973 15.4414C76.9564 15.5195 76.696 15.5814 76.416 15.627C76.1361 15.6725 75.8268 15.6953 75.4883 15.6953C74.8698 15.6953 74.3294 15.5944 73.8672 15.3926C73.4115 15.1842 73.0599 14.8522 72.8125 14.3965C72.5651 13.9408 72.4414 13.3418 72.4414 12.5996V2.32617ZM83.5352 15.6953C82.7148 15.6953 81.9792 15.5651 81.3281 15.3047C80.6771 15.0378 80.1237 14.6699 79.668 14.2012C79.2188 13.7324 78.8737 13.1888 78.6328 12.5703C78.3919 11.9453 78.2715 11.2812 78.2715 10.5781V10.1875C78.2715 9.38672 78.3854 8.6543 78.6133 7.99023C78.8411 7.32617 79.1667 6.75 79.5898 6.26172C80.0195 5.77344 80.5404 5.39909 81.1523 5.13867C81.7643 4.87174 82.4544 4.73828 83.2227 4.73828C83.9714 4.73828 84.6354 4.86198 85.2148 5.10938C85.7943 5.35677 86.2793 5.70833 86.6699 6.16406C87.0671 6.61979 87.3665 7.16667 87.5684 7.80469C87.7702 8.4362 87.8711 9.13932 87.8711 9.91406V11.0859H79.4727V9.21094H85.1074V8.99609C85.1074 8.60547 85.0358 8.25716 84.8926 7.95117C84.7559 7.63867 84.5475 7.39128 84.2676 7.20898C83.9876 7.02669 83.6296 6.93555 83.1934 6.93555C82.8223 6.93555 82.5033 7.01693 82.2363 7.17969C81.9694 7.34245 81.7513 7.57031 81.582 7.86328C81.4193 8.15625 81.2956 8.5013 81.2109 8.89844C81.1328 9.28906 81.0938 9.71875 81.0938 10.1875V10.5781C81.0938 11.0013 81.1523 11.3919 81.2695 11.75C81.3932 12.1081 81.5658 12.4173 81.7871 12.6777C82.015 12.9382 82.2884 13.14 82.6074 13.2832C82.9329 13.4264 83.3008 13.498 83.7109 13.498C84.2188 13.498 84.6908 13.4004 85.127 13.2051C85.5697 13.0033 85.9505 12.7005 86.2695 12.2969L87.6367 13.7812C87.4154 14.1003 87.1126 14.4062 86.7285 14.6992C86.3509 14.9922 85.8952 15.2331 85.3613 15.4219C84.8275 15.6042 84.2188 15.6953 83.5352 15.6953Z" fill="#9333EA"/>
</svg>
